<svg version="1.0" xmlns="http://www.w3.org/2000/svg" xmlns:xlink="http://www.w3.org/1999/xlink" viewBox="10 10 140 140">
<path d="M17.227,110.895c0.749-3.001,2.781-5.343,5.364-6.589l39.584-24.42l-39.579-24.42c-2.562-1.235-4.571-3.551-5.334-6.517C12.622,58.308,10,68.846,10,80c0,11.117,2.603,21.623,7.215,30.959C17.221,110.938,17.222,110.916,17.227,110.895z"/>
<path d="M85.253,89.146l-32.784,20.226l54.507,13.583c5.357,1.335,8.621,6.763,7.285,12.122c-1.334,5.359-6.759,8.62-12.118,7.285l-76.516-19.07c-0.243-0.032-0.481-0.086-0.721-0.136C37.721,139.491,57.627,150,80,150c27.12,0,50.621-15.434,62.244-37.986L85.253,89.146z"/>
<path d="M25.12,36.573c0.165-0.03,0.328-0.07,0.495-0.093l76.522-19.07c5.359-1.335,10.787,1.926,12.121,7.285c1.336,5.359-1.926,10.787-7.283,12.122L52.468,50.399L85.325,70.67l56.93-22.662C130.636,25.443,107.129,10,80,10C57.751,10,37.941,20.393,25.12,36.573z"/>
</svg>
